# xmcd CD database file
#
# Track frame offsets:
#	150
#	15437
#	44645
#	71542
#	107010
#	126595
#	143540
#	159640
#	178477
#	193965
#	215202
#	249367
#	275065
#	304615
#
# Disc length: 4300 seconds
#
# Revision: 0
# Processed by: cddbd v1.4PL0 Copyright (c) Steve Scherf et al.
# Submitted via: Feurio! 1.64 - http://www.feurio.com
#
DISCID=db10ca0e
DTITLE=Various Artist - Intoducing Blues from across the USA
DYEAR=1900
DGENRE=
TTITLE0=Wilson Pickett - Outskirts of town
TTITLE1=Smokin' Joe Kubek - Ready to learn
TTITLE2=Walter Wolfman Washington - It doesn't really matter
TTITLE3=Ruth Brown - The richest one
TTITLE4=Roomful of Blues - Just like dynamite
TTITLE5=Candy Kane - Let's comit adultery
TTITLE6=Sy Klopps - The rock
TTITLE7=Johnny Sansone - Civilized city
TTITLE8=Willie Cobbs - Mean old world
TTITLE9=Theryl Houseman de Clouet - Battlin the blues
TTITLE10=Eddy Clearwater - Running Along
TTITLE11=Sugar Ray - Need my Baby
TTITLE12=Clarence Gatemouth Brown - Sometimes I slip
TTITLE13=Al Copley and The Fabulous Thunderbirds - Bad bad whiskey
EXTD=
EXTT0=
EXTT1=
EXTT2=
EXTT3=
EXTT4=
EXTT5=
EXTT6=
EXTT7=
EXTT8=
EXTT9=
EXTT10=
EXTT11=
EXTT12=
EXTT13=
PLAYORDER=
